# xmcd
#
# Track frame offsets: 
#        150
#        21067
#        36367
#        56232
#        73980
#        89917
#        107502
#        119100
#        133125
#        147307
#        161475
#        174810
#        190297
#        203895
#        219367
#        235812
#        256087
#        273605
#        292580
#        318027
#
# Disc length: 4351 seconds
#
# Revision: 10
# Processed by: cddbd v1.5.2PL0 Copyright (c) Steve Scherf et al.
# Submitted via: ExactAudioCopyFreeDBPlugin 1.0
#
DISCID=2f10fd14
DTITLE=Nitty Gritty Dirt Band - Will The Circle Be Unbroken - Volume 2
DYEAR=1989
DGENRE=Country
TTITLE0=Life's Railway To Heaven
TTITLE1=Grandpa Was A Carpenter
TTITLE2=When I Get My Rewards
TTITLE3=Don't You Hear Jerusalem Moan
TTITLE4=Little Mountain Church House
TTITLE5=And So It Goes
TTITLE6=When It's Gone
TTITLE7=Mary Danced With Soldiers
TTITLE8=Riding Alone
TTITLE9=I'm Sittin' On Top Of The World
TTITLE10=Lovin' On The Side
TTITLE11=Lost River
TTITLE12=Bayou Jubilee
TTITLE13=Blues Berry Hill
TTITLE14=Turn Of The Century
TTITLE15=One Step Over The Line
TTITLE16=You Ain't Going Nowhere
TTITLE17=The Valley Road
TTITLE18=Will The Circle Be Unbroken
TTITLE19=Amazing Grace
EXTD=collaboration of a couple dozen artists - the 'artist name' for ea
EXTD=ch track gives the lead singer(s) (NGDB =Nitty Gritty Dirt Band)
EXTT0=
EXTT1=
EXTT2=
EXTT3=
EXTT4=
EXTT5=
EXTT6=
EXTT7=
EXTT8=
EXTT9=
EXTT10=
EXTT11=
EXTT12=
EXTT13=
EXTT14=
EXTT15=
EXTT16=
EXTT17=
EXTT18=
EXTT19=
PLAYORDER=
